<svg width="285" height="56" viewBox="0 0 285 56" fill="none" xmlns="http://www.w3.org/2000/svg">
<rect x="-0.000244141" y="-6.10352e-05" width="285" height="56" rx="8" fill="url(#paint0_linear_28_740)"/>
<rect x="1.04976" y="1.04994" width="282.9" height="53.9" rx="6.95" stroke="white" stroke-opacity="0.15" stroke-width="2.1"/>
<g filter="url(#filter0_d_28_740)">
<path d="M14.658 34.7499V32.4999H21.408V34.7499H14.658ZM21.408 32.4999V30.2499H23.658V32.4999H21.408ZM12.408 32.4999V21.2499H14.658V32.4999H12.408ZM21.408 23.4999V21.2499H23.658V23.4999H21.408ZM14.658 21.2499V18.9999H21.408V21.2499H14.658ZM30.408 34.7499V21.2499H25.908V18.9999H37.158V21.2499H32.658V34.7499H30.408ZM43.908 25.7499V23.4999H46.158V25.7499H43.908ZM39.408 34.7499V18.9999H41.658V21.2499H43.908V23.4999H41.658V34.7499H39.408ZM48.408 34.7499V23.4999H46.158V21.2499H48.408V18.9999H50.658V34.7499H48.408Z" fill="white"/>
</g>
<g filter="url(#filter1_d_28_740)">
<path d="M61.2782 24.4999V12.8636H65.4259C66.3274 12.8636 67.0755 13.0189 67.6702 13.3295C68.2687 13.6401 68.7157 14.07 69.0111 14.6193C69.3066 15.1647 69.4543 15.7954 69.4543 16.5113C69.4543 17.2234 69.3047 17.8503 69.0054 18.392C68.71 18.9299 68.263 19.3484 67.6645 19.6477C67.0698 19.9469 66.3217 20.0965 65.4202 20.0965H62.2782V18.5852H65.2611C65.8293 18.5852 66.2914 18.5037 66.6475 18.3408C67.0073 18.178 67.2706 17.9412 67.4373 17.6306C67.6039 17.32 67.6873 16.9469 67.6873 16.5113C67.6873 16.0719 67.602 15.6912 67.4316 15.3693C67.2649 15.0473 67.0016 14.8011 66.6418 14.6306C66.2857 14.4564 65.8179 14.3693 65.2384 14.3693H63.0338V24.4999H61.2782ZM67.0225 19.2499L69.8975 24.4999H67.8975L65.0793 19.2499H67.0225ZM75.1063 24.6761C74.2464 24.6761 73.5059 24.4924 72.8847 24.1249C72.2673 23.7537 71.79 23.2329 71.4529 22.5624C71.1195 21.8882 70.9529 21.0984 70.9529 20.1931C70.9529 19.2992 71.1195 18.5113 71.4529 17.8295C71.79 17.1477 72.2597 16.6155 72.862 16.2329C73.468 15.8503 74.1764 15.659 74.987 15.659C75.4794 15.659 75.9567 15.7405 76.4188 15.9033C76.8809 16.0662 77.2957 16.3219 77.6631 16.6704C78.0305 17.0189 78.3203 17.4715 78.5324 18.0283C78.7445 18.5814 78.8506 19.2537 78.8506 20.0454V20.6477H71.9131V19.3749H77.1858C77.1858 18.928 77.0949 18.5321 76.9131 18.1874C76.7313 17.839 76.4756 17.5643 76.1461 17.3636C75.8203 17.1628 75.4377 17.0624 74.9983 17.0624C74.5211 17.0624 74.1044 17.1799 73.7483 17.4147C73.3961 17.6458 73.1233 17.9488 72.9301 18.3238C72.7408 18.695 72.6461 19.0984 72.6461 19.534V20.5283C72.6461 21.1117 72.7483 21.6079 72.9529 22.017C73.1612 22.4261 73.451 22.7386 73.8222 22.9545C74.1934 23.1666 74.6271 23.2727 75.1233 23.2727C75.4453 23.2727 75.7389 23.2272 76.004 23.1363C76.2692 23.0416 76.4983 22.9015 76.6915 22.7158C76.8847 22.5302 77.0324 22.3011 77.1347 22.0283L78.7426 22.3181C78.6139 22.7916 78.3828 23.2064 78.0495 23.5624C77.7199 23.9147 77.3051 24.1893 76.8051 24.3863C76.3089 24.5795 75.7426 24.6761 75.1063 24.6761ZM86.6276 27.7727V23.142H86.5253C86.423 23.3276 86.2753 23.5397 86.0821 23.7783C85.8927 24.017 85.6314 24.2253 85.298 24.4033C84.9647 24.5814 84.5329 24.6704 84.0026 24.6704C83.298 24.6704 82.6693 24.4905 82.1162 24.1306C81.567 23.767 81.1352 23.2499 80.8208 22.5795C80.5102 21.9052 80.3549 21.0965 80.3549 20.1533C80.3549 19.2102 80.5121 18.4033 80.8265 17.7329C81.1446 17.0624 81.5802 16.5492 82.1333 16.1931C82.6863 15.8371 83.3132 15.659 84.014 15.659C84.5556 15.659 84.9912 15.7499 85.3208 15.9318C85.6541 16.1098 85.9117 16.3181 86.0935 16.5568C86.2791 16.7954 86.423 17.0056 86.5253 17.1874H86.6674V15.7727H88.3265V27.7727H86.6276ZM84.3776 23.2215C84.8662 23.2215 85.2791 23.0927 85.6162 22.8352C85.9571 22.5738 86.2147 22.2121 86.389 21.7499C86.567 21.2878 86.656 20.7499 86.656 20.1363C86.656 19.5302 86.5689 18.9999 86.3946 18.5454C86.2204 18.0908 85.9647 17.7367 85.6276 17.4829C85.2905 17.2291 84.8738 17.1022 84.3776 17.1022C83.8662 17.1022 83.4401 17.2348 83.0992 17.4999C82.7583 17.7651 82.5007 18.1268 82.3265 18.5852C82.156 19.0435 82.0708 19.5605 82.0708 20.1363C82.0708 20.7196 82.1579 21.2443 82.3321 21.7102C82.5064 22.1761 82.764 22.5454 83.1049 22.8181C83.4496 23.0871 83.8738 23.2215 84.3776 23.2215ZM96.139 20.8806V15.7727H97.8435V24.4999H96.173V22.9886H96.0821C95.8814 23.4545 95.5594 23.8427 95.1162 24.1533C94.6768 24.4602 94.1295 24.6136 93.4742 24.6136C92.9136 24.6136 92.4174 24.4905 91.9855 24.2443C91.5575 23.9943 91.2204 23.6249 90.9742 23.1363C90.7318 22.6477 90.6105 22.0435 90.6105 21.3238V15.7727H92.3094V21.1193C92.3094 21.714 92.4742 22.1874 92.8037 22.5397C93.1333 22.892 93.5613 23.0681 94.0878 23.0681C94.406 23.0681 94.7223 22.9886 95.0367 22.8295C95.3549 22.6704 95.6181 22.4299 95.8264 22.1079C96.0386 21.7859 96.1427 21.3768 96.139 20.8806ZM100.126 24.4999V15.7727H101.825V24.4999H100.126ZM100.984 14.4261C100.689 14.4261 100.435 14.3276 100.223 14.1306C100.014 13.9299 99.9103 13.6912 99.9103 13.4147C99.9103 13.1344 100.014 12.8958 100.223 12.6988C100.435 12.498 100.689 12.3977 100.984 12.3977C101.28 12.3977 101.531 12.498 101.74 12.6988C101.952 12.8958 102.058 13.1344 102.058 13.4147C102.058 13.6912 101.952 13.9299 101.74 14.1306C101.531 14.3276 101.28 14.4261 100.984 14.4261ZM104.111 24.4999V15.7727H105.753V17.159H105.843C106.003 16.6893 106.283 16.32 106.684 16.0511C107.09 15.7783 107.548 15.642 108.059 15.642C108.165 15.642 108.29 15.6458 108.434 15.6533C108.582 15.6609 108.698 15.6704 108.781 15.6818V17.3068C108.713 17.2878 108.592 17.267 108.417 17.2443C108.243 17.2177 108.069 17.2045 107.895 17.2045C107.493 17.2045 107.135 17.2897 106.821 17.4602C106.51 17.6268 106.264 17.8598 106.082 18.159C105.9 18.4545 105.809 18.7916 105.809 19.1704V24.4999H104.111ZM113.7 24.6761C112.84 24.6761 112.1 24.4924 111.478 24.1249C110.861 23.7537 110.384 23.2329 110.047 22.5624C109.713 21.8882 109.547 21.0984 109.547 20.1931C109.547 19.2992 109.713 18.5113 110.047 17.8295C110.384 17.1477 110.853 16.6155 111.456 16.2329C112.062 15.8503 112.77 15.659 113.581 15.659C114.073 15.659 114.55 15.7405 115.013 15.9033C115.475 16.0662 115.889 16.3219 116.257 16.6704C116.624 17.0189 116.914 17.4715 117.126 18.0283C117.338 18.5814 117.444 19.2537 117.444 20.0454V20.6477H110.507V19.3749H115.78C115.78 18.928 115.689 18.5321 115.507 18.1874C115.325 17.839 115.069 17.5643 114.74 17.3636C114.414 17.1628 114.031 17.0624 113.592 17.0624C113.115 17.0624 112.698 17.1799 112.342 17.4147C111.99 17.6458 111.717 17.9488 111.524 18.3238C111.334 18.695 111.24 19.0984 111.24 19.534V20.5283C111.24 21.1117 111.342 21.6079 111.547 22.017C111.755 22.4261 112.045 22.7386 112.416 22.9545C112.787 23.1666 113.221 23.2727 113.717 23.2727C114.039 23.2727 114.333 23.2272 114.598 23.1363C114.863 23.0416 115.092 22.9015 115.285 22.7158C115.478 22.5302 115.626 22.3011 115.728 22.0283L117.336 22.3181C117.208 22.7916 116.977 23.2064 116.643 23.5624C116.314 23.9147 115.899 24.1893 115.399 24.3863C114.903 24.5795 114.336 24.6761 113.7 24.6761ZM125.869 17.9033L124.329 18.1761C124.265 17.9791 124.163 17.7916 124.022 17.6136C123.886 17.4355 123.7 17.2897 123.466 17.1761C123.231 17.0624 122.937 17.0056 122.585 17.0056C122.104 17.0056 121.702 17.1136 121.38 17.3295C121.058 17.5416 120.897 17.8162 120.897 18.1533C120.897 18.445 121.005 18.6799 121.221 18.8579C121.437 19.0359 121.786 19.1818 122.267 19.2954L123.653 19.6136C124.456 19.7992 125.055 20.0852 125.449 20.4715C125.843 20.8579 126.04 21.3598 126.04 21.9772C126.04 22.4999 125.888 22.9658 125.585 23.3749C125.286 23.7802 124.867 24.0984 124.329 24.3295C123.795 24.5605 123.176 24.6761 122.471 24.6761C121.494 24.6761 120.697 24.4677 120.079 24.0511C119.462 23.6306 119.083 23.034 118.943 22.2613L120.585 22.0113C120.687 22.4393 120.897 22.7632 121.216 22.9829C121.534 23.1988 121.949 23.3068 122.46 23.3068C123.017 23.3068 123.462 23.1912 123.795 22.9602C124.129 22.7253 124.295 22.4393 124.295 22.1022C124.295 21.8295 124.193 21.6003 123.988 21.4147C123.788 21.2291 123.479 21.089 123.062 20.9943L121.585 20.6704C120.771 20.4848 120.168 20.1893 119.778 19.784C119.392 19.3787 119.199 18.8655 119.199 18.2443C119.199 17.7291 119.343 17.2783 119.63 16.892C119.918 16.5056 120.316 16.2045 120.824 15.9886C121.331 15.7689 121.913 15.659 122.568 15.659C123.511 15.659 124.254 15.8636 124.795 16.2727C125.337 16.678 125.695 17.2215 125.869 17.9033Z" fill="#E8E8E8"/>
<path d="M72.1581 35.6157H69.1397C69.0994 35.3058 69.0169 35.0261 68.8922 34.7766C68.7674 34.527 68.6024 34.3137 68.3971 34.1367C68.1919 33.9596 67.9484 33.8247 67.6667 33.7322C67.389 33.6356 67.0811 33.5873 66.743 33.5873C66.1433 33.5873 65.6262 33.7342 65.1915 34.028C64.7609 34.3218 64.4289 34.7464 64.1954 35.3018C63.966 35.8572 63.8513 36.5293 63.8513 37.3181C63.8513 38.1391 63.968 38.8274 64.2015 39.3827C64.4389 39.9341 64.7709 40.3507 65.1976 40.6324C65.6282 40.9101 66.1373 41.0489 66.7249 41.0489C67.0549 41.0489 67.3547 41.0067 67.6244 40.9222C67.8981 40.8376 68.1375 40.7149 68.3428 40.5539C68.5521 40.3889 68.7231 40.1897 68.8559 39.9563C68.9928 39.7188 69.0873 39.4512 69.1397 39.1533L72.1581 39.1715C72.1058 39.7188 71.9468 40.2581 71.6812 40.7894C71.4196 41.3206 71.0594 41.8056 70.6006 42.2443C70.1418 42.6789 69.5824 43.025 68.9223 43.2826C68.2663 43.5402 67.5137 43.669 66.6645 43.669C65.5457 43.669 64.5436 43.4235 63.6581 42.9325C62.7767 42.4374 62.0805 41.717 61.5694 40.7712C61.0582 39.8255 60.8027 38.6744 60.8027 37.3181C60.8027 35.9578 61.0623 34.8047 61.5814 33.859C62.1006 32.9132 62.8029 32.1948 63.6883 31.7038C64.5737 31.2128 65.5658 30.9673 66.6645 30.9673C67.4131 30.9673 68.1053 31.0719 68.7412 31.2812C69.3771 31.4864 69.9365 31.7883 70.4195 32.1867C70.9025 32.5811 71.2949 33.0661 71.5967 33.6416C71.8985 34.2171 72.0857 34.8752 72.1581 35.6157ZM78.1966 43.675C77.2226 43.675 76.3855 43.4758 75.6852 43.0773C74.989 42.6749 74.4517 42.1155 74.0733 41.3991C73.6991 40.6787 73.5119 39.8436 73.5119 38.8938C73.5119 37.9399 73.6991 37.1048 74.0733 36.3884C74.4517 35.668 74.989 35.1086 75.6852 34.7102C76.3855 34.3077 77.2226 34.1065 78.1966 34.1065C79.1705 34.1065 80.0056 34.3077 80.7019 34.7102C81.4022 35.1086 81.9395 35.668 82.3138 36.3884C82.6921 37.1048 82.8812 37.9399 82.8812 38.8938C82.8812 39.8436 82.6921 40.6787 82.3138 41.3991C81.9395 42.1155 81.4022 42.6749 80.7019 43.0773C80.0056 43.4758 79.1705 43.675 78.1966 43.675ZM78.2147 41.4474C78.5688 41.4474 78.8687 41.3387 79.1142 41.1214C79.3597 40.9041 79.5468 40.6022 79.6756 40.2158C79.8084 39.8295 79.8748 39.3827 79.8748 38.8756C79.8748 38.3605 79.8084 37.9097 79.6756 37.5234C79.5468 37.137 79.3597 36.8352 79.1142 36.6178C78.8687 36.4005 78.5688 36.2918 78.2147 36.2918C77.8484 36.2918 77.5385 36.4005 77.285 36.6178C77.0355 36.8352 76.8443 37.137 76.7115 37.5234C76.5827 37.9097 76.5183 38.3605 76.5183 38.8756C76.5183 39.3827 76.5827 39.8295 76.7115 40.2158C76.8443 40.6022 77.0355 40.9041 77.285 41.1214C77.5385 41.3387 77.8484 41.4474 78.2147 41.4474ZM87.3455 38.2116V43.4999H84.3935V34.2272H87.2007V35.9296H87.3033C87.5085 35.3622 87.8587 34.9174 88.3537 34.5955C88.8487 34.2695 89.4383 34.1065 90.1225 34.1065C90.7745 34.1065 91.34 34.2534 91.8189 34.5472C92.3019 34.8369 92.6761 35.2434 92.9418 35.7666C93.2114 36.2858 93.3442 36.8935 93.3402 37.5898V43.4999H90.3882V38.1693C90.3922 37.6542 90.2614 37.2517 89.9958 36.9619C89.7342 36.6722 89.3699 36.5273 88.9031 36.5273C88.5932 36.5273 88.3195 36.5957 88.082 36.7325C87.8486 36.8653 87.6675 37.0565 87.5387 37.306C87.414 37.5556 87.3496 37.8574 87.3455 38.2116ZM98.12 38.2116V43.4999H95.1679V34.2272H97.9751V35.9296H98.0777C98.2829 35.3622 98.6331 34.9174 99.1281 34.5955C99.6231 34.2695 100.213 34.1065 100.897 34.1065C101.549 34.1065 102.114 34.2534 102.593 34.5472C103.076 34.8369 103.451 35.2434 103.716 35.7666C103.986 36.2858 104.119 36.8935 104.115 37.5898V43.4999H101.163V38.1693C101.167 37.6542 101.036 37.2517 100.77 36.9619C100.509 36.6722 100.144 36.5273 99.6775 36.5273C99.3676 36.5273 99.0939 36.5957 98.8565 36.7325C98.623 36.8653 98.4419 37.0565 98.3131 37.306C98.1884 37.5556 98.124 37.8574 98.12 38.2116ZM110.277 43.675C109.307 43.675 108.47 43.4838 107.765 43.1015C107.065 42.7151 106.526 42.1658 106.148 41.4534C105.773 40.737 105.586 39.8858 105.586 38.8998C105.586 37.9419 105.775 37.1048 106.154 36.3884C106.532 35.668 107.065 35.1086 107.753 34.7102C108.442 34.3077 109.253 34.1065 110.186 34.1065C110.846 34.1065 111.45 34.2091 111.997 34.4144C112.545 34.6196 113.018 34.9235 113.416 35.3259C113.814 35.7284 114.124 36.2254 114.346 36.8171C114.567 37.4046 114.678 38.0788 114.678 38.8394V39.5759H106.618V37.8614H111.931C111.927 37.5475 111.852 37.2678 111.708 37.0223C111.563 36.7768 111.363 36.5856 111.11 36.4488C110.86 36.3079 110.573 36.2375 110.247 36.2375C109.917 36.2375 109.621 36.312 109.359 36.4609C109.098 36.6058 108.89 36.805 108.737 37.0585C108.584 37.3081 108.504 37.5918 108.496 37.9097V39.6544C108.496 40.0327 108.57 40.3648 108.719 40.6505C108.868 40.9322 109.079 41.1516 109.353 41.3085C109.627 41.4655 109.953 41.544 110.331 41.544C110.593 41.544 110.83 41.5077 111.044 41.4353C111.257 41.3629 111.44 41.2562 111.593 41.1153C111.746 40.9745 111.861 40.8014 111.937 40.5962L114.648 40.6747C114.535 41.2824 114.287 41.8116 113.905 42.2624C113.527 42.7091 113.03 43.0572 112.414 43.3068C111.798 43.5523 111.086 43.675 110.277 43.675ZM120.514 43.675C119.536 43.675 118.697 43.4738 117.997 43.0713C117.3 42.6689 116.765 42.1094 116.391 41.393C116.016 40.6726 115.829 39.8395 115.829 38.8938C115.829 37.9439 116.016 37.1109 116.391 36.3945C116.769 35.6741 117.306 35.1126 118.003 34.7102C118.703 34.3077 119.538 34.1065 120.508 34.1065C121.365 34.1065 122.112 34.2614 122.748 34.5713C123.388 34.8812 123.887 35.3199 124.245 35.8874C124.607 36.4508 124.798 37.1129 124.818 37.8735H122.059C122.003 37.3986 121.842 37.0263 121.576 36.7567C121.315 36.487 120.973 36.3522 120.55 36.3522C120.208 36.3522 119.908 36.4488 119.651 36.642C119.393 36.8311 119.192 37.1129 119.047 37.4872C118.906 37.8574 118.836 38.3162 118.836 38.8636C118.836 39.4109 118.906 39.8738 119.047 40.2521C119.192 40.6264 119.393 40.9101 119.651 41.1033C119.908 41.2924 120.208 41.387 120.55 41.387C120.824 41.387 121.065 41.3287 121.275 41.2119C121.488 41.0952 121.663 40.9242 121.8 40.6988C121.937 40.4694 122.023 40.1917 122.059 39.8657H124.818C124.79 40.6304 124.599 41.2985 124.245 41.87C123.895 42.4415 123.402 42.8862 122.766 43.2041C122.134 43.518 121.383 43.675 120.514 43.675ZM131.563 34.2272V36.4005H125.713V34.2272H131.563ZM126.939 32.0056H129.891V40.5841C129.891 40.7652 129.919 40.9121 129.975 41.0248C130.036 41.1335 130.122 41.2119 130.235 41.2602C130.348 41.3045 130.482 41.3266 130.639 41.3266C130.752 41.3266 130.871 41.3166 130.996 41.2965C131.124 41.2723 131.221 41.2522 131.285 41.2361L131.732 43.3671C131.591 43.4074 131.392 43.4577 131.134 43.518C130.881 43.5784 130.577 43.6166 130.223 43.6327C129.531 43.6649 128.937 43.5845 128.442 43.3913C127.951 43.1941 127.575 42.8882 127.313 42.4737C127.055 42.0591 126.931 41.5379 126.939 40.9101V32.0056ZM137.304 43.675C136.334 43.675 135.497 43.4838 134.793 43.1015C134.093 42.7151 133.553 42.1658 133.175 41.4534C132.801 40.737 132.613 39.8858 132.613 38.8998C132.613 37.9419 132.803 37.1048 133.181 36.3884C133.559 35.668 134.093 35.1086 134.781 34.7102C135.469 34.3077 136.28 34.1065 137.214 34.1065C137.874 34.1065 138.477 34.2091 139.025 34.4144C139.572 34.6196 140.045 34.9235 140.443 35.3259C140.842 35.7284 141.152 36.2254 141.373 36.8171C141.594 37.4046 141.705 38.0788 141.705 38.8394V39.5759H133.646V37.8614H138.958C138.954 37.5475 138.88 37.2678 138.735 37.0223C138.59 36.7768 138.391 36.5856 138.137 36.4488C137.888 36.3079 137.6 36.2375 137.274 36.2375C136.944 36.2375 136.648 36.312 136.387 36.4609C136.125 36.6058 135.918 36.805 135.765 37.0585C135.612 37.3081 135.531 37.5918 135.523 37.9097V39.6544C135.523 40.0327 135.598 40.3648 135.747 40.6505C135.896 40.9322 136.107 41.1516 136.381 41.3085C136.654 41.4655 136.98 41.544 137.358 41.544C137.62 41.544 137.858 41.5077 138.071 41.4353C138.284 41.3629 138.467 41.2562 138.62 41.1153C138.773 40.9745 138.888 40.8014 138.964 40.5962L141.675 40.6747C141.562 41.2824 141.315 41.8116 140.932 42.2624C140.554 42.7091 140.057 43.0572 139.441 43.3068C138.825 43.5523 138.113 43.675 137.304 43.675ZM146.6 43.6327C145.915 43.6327 145.294 43.4557 144.734 43.1015C144.175 42.7473 143.728 42.2161 143.394 41.5077C143.06 40.7994 142.893 39.92 142.893 38.8696C142.893 37.7789 143.066 36.8814 143.412 36.1771C143.758 35.4728 144.211 34.9516 144.77 34.6136C145.334 34.2755 145.939 34.1065 146.587 34.1065C147.074 34.1065 147.491 34.191 147.837 34.36C148.183 34.525 148.469 34.7383 148.694 34.9999C148.92 35.2615 149.091 35.5332 149.207 35.8149H149.268V31.1363H152.22V43.4999H149.298V41.9967H149.207C149.083 42.2825 148.906 42.5501 148.676 42.7997C148.447 43.0492 148.159 43.2504 147.813 43.4033C147.471 43.5563 147.066 43.6327 146.6 43.6327ZM147.626 41.3327C147.984 41.3327 148.29 41.2321 148.543 41.0308C148.797 40.8256 148.992 40.5378 149.129 40.1675C149.266 39.7973 149.334 39.3626 149.334 38.8636C149.334 38.3565 149.266 37.9198 149.129 37.5536C148.996 37.1873 148.801 36.9056 148.543 36.7084C148.29 36.5112 147.984 36.4126 147.626 36.4126C147.26 36.4126 146.95 36.5132 146.696 36.7144C146.443 36.9157 146.249 37.1994 146.117 37.5656C145.988 37.9319 145.923 38.3645 145.923 38.8636C145.923 39.3626 145.99 39.7973 146.123 40.1675C146.255 40.5378 146.447 40.8256 146.696 41.0308C146.95 41.2321 147.26 41.3327 147.626 41.3327ZM157.335 33.5631V31.1363H167.785V33.5631H164.036V43.4999H161.09V33.5631H157.335ZM172.234 43.675C171.264 43.675 170.427 43.4838 169.722 43.1015C169.022 42.7151 168.483 42.1658 168.105 41.4534C167.73 40.737 167.543 39.8858 167.543 38.8998C167.543 37.9419 167.732 37.1048 168.111 36.3884C168.489 35.668 169.022 35.1086 169.71 34.7102C170.399 34.3077 171.21 34.1065 172.143 34.1065C172.803 34.1065 173.407 34.2091 173.954 34.4144C174.502 34.6196 174.975 34.9235 175.373 35.3259C175.771 35.7284 176.081 36.2254 176.303 36.8171C176.524 37.4046 176.635 38.0788 176.635 38.8394V39.5759H168.575V37.8614H173.888C173.884 37.5475 173.809 37.2678 173.665 37.0223C173.52 36.7768 173.32 36.5856 173.067 36.4488C172.817 36.3079 172.53 36.2375 172.204 36.2375C171.874 36.2375 171.578 36.312 171.316 36.4609C171.055 36.6058 170.847 36.805 170.694 37.0585C170.541 37.3081 170.461 37.5918 170.453 37.9097V39.6544C170.453 40.0327 170.527 40.3648 170.676 40.6505C170.825 40.9322 171.037 41.1516 171.31 41.3085C171.584 41.4655 171.91 41.544 172.288 41.544C172.55 41.544 172.787 41.5077 173.001 41.4353C173.214 41.3629 173.397 41.2562 173.55 41.1153C173.703 40.9745 173.818 40.8014 173.894 40.5962L176.605 40.6747C176.492 41.2824 176.244 41.8116 175.862 42.2624C175.484 42.7091 174.987 43.0572 174.371 43.3068C173.755 43.5523 173.043 43.675 172.234 43.675ZM180.521 34.2272L182.048 37.2819L183.63 34.2272H186.606L184.016 38.8636L186.703 43.4999H183.751L182.048 40.4211L180.388 43.4999H177.394L180.086 38.8636L177.527 34.2272H180.521ZM193.188 34.2272V36.4005H187.338V34.2272L193.188 34.2272ZM188.564 32.0056H191.516V40.5841C191.516 40.7652 191.544 40.9121 191.6 41.0248C191.661 41.1335 191.747 41.2119 191.86 41.2602C191.973 41.3045 192.107 41.3266 192.264 41.3266C192.377 41.3266 192.496 41.3166 192.621 41.2965C192.749 41.2723 192.846 41.2522 192.91 41.2361L193.357 43.3671C193.216 43.4074 193.017 43.4577 192.759 43.518C192.506 43.5784 192.202 43.6166 191.848 43.6327C191.156 43.6649 190.562 43.5845 190.067 43.3913C189.576 43.1941 189.2 42.8882 188.938 42.4737C188.68 42.0591 188.556 41.5379 188.564 40.9101V32.0056ZM200.677 39.4974V34.2272H203.623V43.4999H200.81V41.7734H200.713C200.508 42.3408 200.158 42.7916 199.663 43.1256C199.172 43.4557 198.578 43.6207 197.882 43.6207C197.25 43.6207 196.694 43.4758 196.216 43.186C195.737 42.8962 195.364 42.4918 195.099 41.9726C194.833 41.4494 194.698 40.8376 194.694 40.1374V34.2272H197.646V39.5578C197.65 40.0609 197.783 40.4573 198.045 40.7471C198.306 41.0369 198.663 41.1818 199.113 41.1818C199.407 41.1818 199.671 41.1174 199.904 40.9886C200.142 40.8558 200.329 40.6646 200.466 40.4151C200.606 40.1615 200.677 39.8556 200.677 39.4974ZM205.502 43.4999V34.2272H208.369V35.9176H208.466C208.635 35.3058 208.911 34.851 209.293 34.5532C209.675 34.2514 210.12 34.1004 210.627 34.1004C210.764 34.1004 210.905 34.1105 211.05 34.1306C211.195 34.1467 211.329 34.1729 211.454 34.2091V36.7748C211.313 36.7265 211.128 36.6883 210.899 36.6601C210.673 36.6319 210.472 36.6178 210.295 36.6178C209.945 36.6178 209.629 36.6963 209.347 36.8533C209.07 37.0062 208.85 37.2215 208.689 37.4992C208.532 37.7729 208.454 38.0949 208.454 38.4651V43.4999H205.502ZM216.51 43.675C215.54 43.675 214.703 43.4838 213.999 43.1015C213.299 42.7151 212.759 42.1658 212.381 41.4534C212.007 40.737 211.819 39.8858 211.819 38.8998C211.819 37.9419 212.009 37.1048 212.387 36.3884C212.765 35.668 213.299 35.1086 213.987 34.7102C214.675 34.3077 215.486 34.1065 216.42 34.1065C217.08 34.1065 217.683 34.2091 218.231 34.4144C218.778 34.6196 219.251 34.9235 219.649 35.3259C220.048 35.7284 220.358 36.2254 220.579 36.8171C220.8 37.4046 220.911 38.0788 220.911 38.8394V39.5759H212.852V37.8614H218.164C218.16 37.5475 218.086 37.2678 217.941 37.0223C217.796 36.7768 217.597 36.5856 217.343 36.4488C217.094 36.3079 216.806 36.2375 216.48 36.2375C216.15 36.2375 215.854 36.312 215.593 36.4609C215.331 36.6058 215.124 36.805 214.971 37.0585C214.818 37.3081 214.737 37.5918 214.729 37.9097V39.6544C214.729 40.0327 214.804 40.3648 214.953 40.6505C215.102 40.9322 215.313 41.1516 215.587 41.3085C215.86 41.4655 216.186 41.544 216.565 41.544C216.826 41.544 217.064 41.5077 217.277 41.4353C217.49 41.3629 217.673 41.2562 217.826 41.1153C217.979 40.9745 218.094 40.8014 218.17 40.5962L220.881 40.6747C220.768 41.2824 220.521 41.8116 220.138 42.2624C219.76 42.7091 219.263 43.0572 218.647 43.3068C218.031 43.5523 217.319 43.675 216.51 43.675ZM230.514 37.0585L227.804 37.131C227.776 36.9378 227.699 36.7667 227.574 36.6178C227.45 36.4649 227.287 36.3462 227.085 36.2617C226.888 36.1731 226.659 36.1288 226.397 36.1288C226.055 36.1288 225.763 36.1973 225.522 36.3341C225.284 36.4709 225.168 36.6561 225.172 36.8895C225.168 37.0706 225.24 37.2276 225.389 37.3604C225.542 37.4932 225.814 37.5998 226.204 37.6803L227.991 38.0184C228.917 38.1955 229.605 38.4893 230.056 38.8998C230.51 39.3103 230.74 39.8536 230.744 40.5298C230.74 41.1657 230.551 41.719 230.176 42.1899C229.806 42.6608 229.299 43.027 228.655 43.2886C228.011 43.5462 227.275 43.675 226.445 43.675C225.121 43.675 224.077 43.4033 223.312 42.86C222.552 42.3127 222.117 41.5802 222.008 40.6626L224.924 40.5901C224.989 40.9282 225.156 41.1858 225.425 41.3629C225.695 41.5399 226.039 41.6285 226.458 41.6285C226.836 41.6285 227.144 41.5581 227.381 41.4172C227.619 41.2763 227.739 41.0892 227.743 40.8558C227.739 40.6465 227.647 40.4795 227.466 40.3547C227.285 40.2259 227.001 40.1253 226.614 40.0528L224.997 39.745C224.067 39.5759 223.375 39.264 222.92 38.8092C222.465 38.3504 222.24 37.7669 222.244 37.0585C222.24 36.4387 222.405 35.9095 222.739 35.4708C223.073 35.0281 223.548 34.69 224.164 34.4566C224.779 34.2232 225.506 34.1065 226.343 34.1065C227.599 34.1065 228.589 34.3701 229.313 34.8973C230.037 35.4205 230.438 36.1409 230.514 37.0585ZM235.849 31.1363H239.55L242.689 38.7911H242.834L245.973 31.1363H249.674V43.4999H246.764V35.9055H246.662L243.691 43.4215H241.832L238.862 35.8632H238.759V43.4999H235.849V31.1363ZM255.866 43.675C254.892 43.675 254.055 43.4758 253.355 43.0773C252.659 42.6749 252.122 42.1155 251.743 41.3991C251.369 40.6787 251.182 39.8436 251.182 38.8938C251.182 37.9399 251.369 37.1048 251.743 36.3884C252.122 35.668 252.659 35.1086 253.355 34.7102C254.055 34.3077 254.892 34.1065 255.866 34.1065C256.84 34.1065 257.676 34.3077 258.372 34.7102C259.072 35.1086 259.609 35.668 259.984 36.3884C260.362 37.1048 260.551 37.9399 260.551 38.8938C260.551 39.8436 260.362 40.6787 259.984 41.3991C259.609 42.1155 259.072 42.6749 258.372 43.0773C257.676 43.4758 256.84 43.675 255.866 43.675ZM255.885 41.4474C256.239 41.4474 256.539 41.3387 256.784 41.1214C257.03 40.9041 257.217 40.6022 257.345 40.2158C257.478 39.8295 257.545 39.3827 257.545 38.8756C257.545 38.3605 257.478 37.9097 257.345 37.5234C257.217 37.137 257.03 36.8352 256.784 36.6178C256.539 36.4005 256.239 36.2918 255.885 36.2918C255.518 36.2918 255.208 36.4005 254.955 36.6178C254.705 36.8352 254.514 37.137 254.381 37.5234C254.253 37.9097 254.188 38.3605 254.188 38.8756C254.188 39.3827 254.253 39.8295 254.381 40.2158C254.514 40.6022 254.705 40.9041 254.955 41.1214C255.208 41.3387 255.518 41.4474 255.885 41.4474ZM265.45 43.6327C264.766 43.6327 264.144 43.4557 263.585 43.1015C263.025 42.7473 262.579 42.2161 262.244 41.5077C261.91 40.7994 261.743 39.92 261.743 38.8696C261.743 37.7789 261.916 36.8814 262.263 36.1771C262.609 35.4728 263.061 34.9516 263.621 34.6136C264.184 34.2755 264.79 34.1065 265.438 34.1065C265.925 34.1065 266.342 34.191 266.688 34.36C267.034 34.525 267.32 34.7383 267.545 34.9999C267.77 35.2615 267.941 35.5332 268.058 35.8149H268.118V31.1363H271.07V43.4999H268.149V41.9967H268.058C267.933 42.2825 267.756 42.5501 267.527 42.7997C267.297 43.0492 267.01 43.2504 266.663 43.4033C266.321 43.5563 265.917 43.6327 265.45 43.6327ZM266.476 41.3327C266.835 41.3327 267.14 41.2321 267.394 41.0308C267.648 40.8256 267.843 40.5378 267.98 40.1675C268.116 39.7973 268.185 39.3626 268.185 38.8636C268.185 38.3565 268.116 37.9198 267.98 37.5536C267.847 37.1873 267.652 36.9056 267.394 36.7084C267.14 36.5112 266.835 36.4126 266.476 36.4126C266.11 36.4126 265.8 36.5132 265.547 36.7144C265.293 36.9157 265.1 37.1994 264.967 37.5656C264.838 37.9319 264.774 38.3645 264.774 38.8636C264.774 39.3626 264.84 39.7973 264.973 40.1675C265.106 40.5378 265.297 40.8256 265.547 41.0308C265.8 41.2321 266.11 41.3327 266.476 41.3327Z" fill="white"/>
</g>
<defs>
<filter id="filter0_d_28_740" x="6.28547" y="2.28565" width="51.4286" height="51.4286" filterUnits="userSpaceOnUse" color-interpolation-filters="sRGB">
<feFlood flood-opacity="0" result="BackgroundImageFix"/>
<feColorMatrix in="SourceAlpha" type="matrix" values="0 0 0 0 0 0 0 0 0 0 0 0 0 0 0 0 0 0 127 0" result="hardAlpha"/>
<feOffset/>
<feGaussianBlur stdDeviation="2.85714"/>
<feComposite in2="hardAlpha" operator="out"/>
<feColorMatrix type="matrix" values="0 0 0 0 0 0 0 0 0 0 0 0 0 0 0 0 0 0 0.25 0"/>
<feBlend mode="normal" in2="BackgroundImageFix" result="effect1_dropShadow_28_740"/>
<feBlend mode="normal" in="SourceGraphic" in2="effect1_dropShadow_28_740" result="shape"/>
</filter>
<filter id="filter1_d_28_740" x="54.3998" y="3.89994" width="224.2" height="48.2" filterUnits="userSpaceOnUse" color-interpolation-filters="sRGB">
<feFlood flood-opacity="0" result="BackgroundImageFix"/>
<feColorMatrix in="SourceAlpha" type="matrix" values="0 0 0 0 0 0 0 0 0 0 0 0 0 0 0 0 0 0 127 0" result="hardAlpha"/>
<feOffset/>
<feGaussianBlur stdDeviation="2.8"/>
<feComposite in2="hardAlpha" operator="out"/>
<feColorMatrix type="matrix" values="0 0 0 0 0 0 0 0 0 0 0 0 0 0 0 0 0 0 0.25 0"/>
<feBlend mode="normal" in2="BackgroundImageFix" result="effect1_dropShadow_28_740"/>
<feBlend mode="normal" in="SourceGraphic" in2="effect1_dropShadow_28_740" result="shape"/>
</filter>
<linearGradient id="paint0_linear_28_740" x1="142.5" y1="-6.10352e-05" x2="142.5" y2="53.2" gradientUnits="userSpaceOnUse">
<stop stop-color="#343434"/>
<stop offset="1" stop-color="#232323"/>
</linearGradient>
</defs>
</svg>
