<svg width="241" height="56" viewBox="0 0 241 56" fill="none" xmlns="http://www.w3.org/2000/svg">
<rect x="0.00244141" y="-1.52588e-05" width="241" height="56" rx="8" fill="url(#paint0_linear_65_10)"/>
<rect x="1.05244" y="1.04998" width="238.9" height="53.9" rx="6.95" stroke="white" stroke-opacity="0.15" stroke-width="2.1"/>
<g filter="url(#filter0_d_65_10)">
<path d="M11.7676 35.125V32.75H18.8926V35.125H11.7676ZM18.8926 32.75V30.375H21.2676V32.75H18.8926ZM9.39258 32.75V20.875H11.7676V32.75H9.39258ZM18.8926 23.25V20.875H21.2676V23.25H18.8926ZM11.7676 20.875V18.5H18.8926V20.875H11.7676ZM28.3926 35.125V20.875H23.6426V18.5H35.5176V20.875H30.7676V35.125H28.3926ZM42.6426 25.625V23.25H45.0176V25.625H42.6426ZM37.8926 35.125V18.5H40.2676V20.875H42.6426V23.25H40.2676V35.125H37.8926ZM47.3926 35.125V23.25H45.0176V20.875H47.3926V18.5H49.7676V35.125H47.3926Z" fill="white"/>
</g>
<g filter="url(#filter1_d_65_10)">
<path d="M58.4996 25V12.6363H62.6772C63.6431 12.6363 64.4359 12.8014 65.0557 13.1314C65.6755 13.4574 66.1343 13.9061 66.4321 14.4776C66.7299 15.0491 66.8789 15.6991 66.8789 16.4275C66.8789 17.156 66.7299 17.8019 66.4321 18.3654C66.1343 18.9288 65.6775 19.3715 65.0617 19.6935C64.446 20.0115 63.6592 20.1704 62.7013 20.1704H59.3206V18.8182H62.653C63.313 18.8182 63.8443 18.7216 64.2468 18.5284C64.6532 18.3352 64.947 18.0615 65.1281 17.7074C65.3133 17.3492 65.4058 16.9226 65.4058 16.4275C65.4058 15.9325 65.3133 15.4999 65.1281 15.1296C64.943 14.7593 64.6472 14.4736 64.2407 14.2724C63.8342 14.0671 63.2969 13.9645 62.6289 13.9645H59.9968V25H58.4996ZM64.3192 19.446L67.3618 25H65.6232L62.6289 19.446H64.3192ZM72.9686 25.1932C72.0751 25.1932 71.3044 24.996 70.6565 24.6015C70.0125 24.2031 69.5155 23.6477 69.1653 22.9354C68.8192 22.219 68.6462 21.3859 68.6462 20.4361C68.6462 19.4863 68.8192 18.6491 69.1653 17.9247C69.5155 17.1962 70.0025 16.6288 70.6263 16.2223C71.2541 15.8118 71.9866 15.6065 72.8237 15.6065C73.3067 15.6065 73.7836 15.687 74.2545 15.848C74.7254 16.009 75.154 16.2706 75.5403 16.6328C75.9267 16.991 76.2346 17.4659 76.464 18.0575C76.6934 18.6491 76.8081 19.3776 76.8081 20.2429V20.8466H69.6604V19.615H75.3592C75.3592 19.0918 75.2546 18.625 75.0453 18.2145C74.8401 17.804 74.5463 17.48 74.1639 17.2425C73.7856 17.0051 73.3389 16.8863 72.8237 16.8863C72.2563 16.8863 71.7653 17.0272 71.3507 17.3089C70.9402 17.5866 70.6243 17.9488 70.4029 18.3956C70.1816 18.8423 70.0709 19.3212 70.0709 19.8324V20.6534C70.0709 21.3537 70.1916 21.9473 70.4331 22.4343C70.6786 22.9172 71.0187 23.2855 71.4533 23.539C71.888 23.7886 72.3931 23.9133 72.9686 23.9133C73.3429 23.9133 73.681 23.861 73.9828 23.7564C74.2887 23.6477 74.5523 23.4867 74.7737 23.2734C74.995 23.0561 75.1661 22.7864 75.2868 22.4645L76.6632 22.8508C76.5183 23.3177 76.2748 23.7282 75.9327 24.0824C75.5907 24.4325 75.1681 24.7062 74.665 24.9034C74.1619 25.0966 73.5965 25.1932 72.9686 25.1932ZM85.3021 28.4773V23.5753H85.1813C85.0767 23.7443 84.9278 23.9576 84.7346 24.2152C84.5414 24.4687 84.2657 24.6961 83.9075 24.8974C83.5493 25.0946 83.0724 25.1932 82.4768 25.1932C81.704 25.1932 81.0219 24.998 80.4303 24.6076C79.8386 24.2132 79.3758 23.6578 79.0418 22.9414C78.7077 22.221 78.5407 21.3698 78.5407 20.3878C78.5407 19.4138 78.7077 18.5686 79.0418 17.8523C79.3758 17.1359 79.8407 16.5825 80.4363 16.1921C81.0319 15.8017 81.7201 15.6065 82.5009 15.6065C83.1046 15.6065 83.5815 15.7071 83.9317 15.9084C84.2858 16.1056 84.5555 16.3309 84.7406 16.5845C84.9298 16.834 85.0767 17.0393 85.1813 17.2003H85.3504V15.7273H86.7268V28.4773H85.3021ZM82.67 23.9133C83.2415 23.9133 83.7244 23.7644 84.1188 23.4666C84.5132 23.1648 84.8131 22.7482 85.0183 22.217C85.2236 21.6817 85.3262 21.0639 85.3262 20.3636C85.3262 19.6714 85.2256 19.0657 85.0244 18.5465C84.8231 18.0233 84.5253 17.6168 84.1309 17.327C83.7365 17.0332 83.2495 16.8863 82.67 16.8863C82.0663 16.8863 81.5632 17.0413 81.1607 17.3512C80.7623 17.6571 80.4625 18.0736 80.2612 18.6008C80.064 19.124 79.9654 19.7116 79.9654 20.3636C79.9654 21.0237 80.066 21.6233 80.2673 22.1626C80.4725 22.6979 80.7744 23.1245 81.1728 23.4425C81.5753 23.7564 82.0743 23.9133 82.67 23.9133ZM95.1785 21.2088V15.7273H96.6032V25H95.1785V23.4304H95.0819C94.8646 23.9013 94.5265 24.3017 94.0677 24.6317C93.6089 24.9577 93.0293 25.1207 92.329 25.1207C91.7495 25.1207 91.2344 24.9939 90.7836 24.7404C90.3328 24.4828 89.9787 24.0965 89.7211 23.5813C89.4635 23.0621 89.3347 22.4081 89.3347 21.6193V15.7273H90.7594V21.5227C90.7594 22.1988 90.9486 22.7381 91.3269 23.1406C91.7093 23.5431 92.1962 23.7443 92.7879 23.7443C93.142 23.7443 93.5022 23.6537 93.8685 23.4726C94.2387 23.2915 94.5486 23.0138 94.7982 22.6395C95.0517 22.2653 95.1785 21.7883 95.1785 21.2088ZM99.2127 25V15.7273H100.637V25H99.2127ZM99.9371 14.1818C99.6594 14.1818 99.4199 14.0872 99.2187 13.8981C99.0215 13.7089 98.9229 13.4815 98.9229 13.2159C98.9229 12.9503 99.0215 12.7229 99.2187 12.5337C99.4199 12.3446 99.6594 12.25 99.9371 12.25C100.215 12.25 100.452 12.3446 100.649 12.5337C100.851 12.7229 100.951 12.9503 100.951 13.2159C100.951 13.4815 100.851 13.7089 100.649 13.8981C100.452 14.0872 100.215 14.1818 99.9371 14.1818ZM103.247 25V15.7273H104.623V17.1278H104.72C104.889 16.669 105.195 16.2967 105.637 16.011C106.08 15.7252 106.579 15.5824 107.135 15.5824C107.239 15.5824 107.37 15.5844 107.527 15.5884C107.684 15.5924 107.803 15.5985 107.883 15.6065V17.0554C107.835 17.0433 107.724 17.0252 107.551 17.001C107.382 16.9729 107.203 16.9588 107.014 16.9588C106.563 16.9588 106.161 17.0534 105.806 17.2425C105.456 17.4277 105.179 17.6852 104.973 18.0153C104.772 18.3412 104.672 18.7135 104.672 19.1321V25H103.247ZM113.178 25.1932C112.284 25.1932 111.513 24.996 110.865 24.6015C110.222 24.2031 109.724 23.6477 109.374 22.9354C109.028 22.219 108.855 21.3859 108.855 20.4361C108.855 19.4863 109.028 18.6491 109.374 17.9247C109.724 17.1962 110.211 16.6288 110.835 16.2223C111.463 15.8118 112.196 15.6065 113.033 15.6065C113.516 15.6065 113.993 15.687 114.463 15.848C114.934 16.009 115.363 16.2706 115.749 16.6328C116.136 16.991 116.444 17.4659 116.673 18.0575C116.902 18.6491 117.017 19.3776 117.017 20.2429V20.8466H109.869V19.615H115.568C115.568 19.0918 115.464 18.625 115.254 18.2145C115.049 17.804 114.755 17.48 114.373 17.2425C113.995 17.0051 113.548 16.8863 113.033 16.8863C112.465 16.8863 111.974 17.0272 111.56 17.3089C111.149 17.5866 110.833 17.9488 110.612 18.3956C110.391 18.8423 110.28 19.3212 110.28 19.8324V20.6534C110.28 21.3537 110.401 21.9473 110.642 22.4343C110.888 22.9172 111.228 23.2855 111.662 23.539C112.097 23.7886 112.602 23.9133 113.178 23.9133C113.552 23.9133 113.89 23.861 114.192 23.7564C114.498 23.6477 114.761 23.4867 114.983 23.2734C115.204 23.0561 115.375 22.7864 115.496 22.4645L116.872 22.8508C116.727 23.3177 116.484 23.7282 116.142 24.0824C115.8 24.4325 115.377 24.7062 114.874 24.9034C114.371 25.0966 113.805 25.1932 113.178 25.1932ZM125.753 17.804L124.473 18.1662C124.392 17.9529 124.273 17.7456 124.117 17.5444C123.964 17.3391 123.754 17.1701 123.489 17.0373C123.223 16.9045 122.883 16.8381 122.468 16.8381C121.901 16.8381 121.428 16.9689 121.05 17.2305C120.675 17.488 120.488 17.816 120.488 18.2145C120.488 18.5686 120.617 18.8483 120.875 19.0536C121.132 19.2589 121.535 19.4299 122.082 19.5667L123.458 19.9048C124.288 20.106 124.905 20.4139 125.312 20.8285C125.718 21.239 125.922 21.7682 125.922 22.4162C125.922 22.9474 125.769 23.4223 125.463 23.8409C125.161 24.2595 124.738 24.5895 124.195 24.8309C123.652 25.0724 123.02 25.1932 122.299 25.1932C121.354 25.1932 120.571 24.9879 119.951 24.5774C119.331 24.1669 118.939 23.5672 118.774 22.7784L120.126 22.4403C120.255 22.9394 120.498 23.3137 120.857 23.5632C121.219 23.8127 121.692 23.9375 122.275 23.9375C122.939 23.9375 123.467 23.7966 123.857 23.5149C124.251 23.2291 124.449 22.8871 124.449 22.4886C124.449 22.1666 124.336 21.897 124.11 21.6797C123.885 21.4583 123.539 21.2933 123.072 21.1846L121.527 20.8224C120.677 20.6212 120.054 20.3093 119.655 19.8867C119.261 19.4601 119.064 18.9268 119.064 18.2869C119.064 17.7637 119.21 17.3009 119.504 16.8984C119.802 16.496 120.207 16.18 120.718 15.9506C121.233 15.7212 121.816 15.6065 122.468 15.6065C123.386 15.6065 124.106 15.8077 124.63 16.2102C125.157 16.6127 125.531 17.1439 125.753 17.804ZM69.1608 35.1157H66.1424C66.1021 34.8058 66.0196 34.5261 65.8948 34.2766C65.7701 34.0271 65.6051 33.8138 65.3998 33.6367C65.1946 33.4596 64.9511 33.3248 64.6693 33.2322C64.3916 33.1356 64.0838 33.0873 63.7457 33.0873C63.146 33.0873 62.6289 33.2342 62.1942 33.528C61.7636 33.8218 61.4315 34.2464 61.1981 34.8018C60.9687 35.3572 60.854 36.0293 60.854 36.8182C60.854 37.6392 60.9707 38.3274 61.2041 38.8828C61.4416 39.4342 61.7736 39.8507 62.2002 40.1324C62.6309 40.4101 63.14 40.549 63.7276 40.549C64.0576 40.549 64.3574 40.5067 64.6271 40.4222C64.9008 40.3377 65.1402 40.2149 65.3455 40.054C65.5548 39.8889 65.7258 39.6897 65.8586 39.4563C65.9955 39.2188 66.09 38.9512 66.1424 38.6534L69.1608 38.6715C69.1085 39.2188 68.9495 39.7581 68.6839 40.2894C68.4223 40.8206 68.0621 41.3056 67.6033 41.7443C67.1445 42.179 66.5851 42.5251 65.925 42.7826C65.269 43.0402 64.5164 43.169 63.6672 43.169C62.5484 43.169 61.5462 42.9235 60.6608 42.4325C59.7794 41.9375 59.0832 41.2171 58.572 40.2713C58.0609 39.3255 57.8054 38.1745 57.8054 36.8182C57.8054 35.4578 58.0649 34.3048 58.5841 33.359C59.1033 32.4132 59.8056 31.6948 60.691 31.2038C61.5764 30.7128 62.5685 30.4673 63.6672 30.4673C64.4158 30.4673 65.108 30.5719 65.7439 30.7812C66.3798 30.9865 66.9392 31.2883 67.4222 31.6868C67.9051 32.0812 68.2975 32.5661 68.5994 33.1417C68.9012 33.7172 69.0884 34.3752 69.1608 35.1157ZM75.1993 43.175C74.2253 43.175 73.3882 42.9758 72.6879 42.5774C71.9916 42.1749 71.4543 41.6155 71.076 40.8991C70.7017 40.1787 70.5146 39.3436 70.5146 38.3938C70.5146 37.44 70.7017 36.6049 71.076 35.8885C71.4543 35.1681 71.9916 34.6086 72.6879 34.2102C73.3882 33.8077 74.2253 33.6065 75.1993 33.6065C76.1732 33.6065 77.0083 33.8077 77.7046 34.2102C78.4049 34.6086 78.9422 35.1681 79.3164 35.8885C79.6948 36.6049 79.8839 37.44 79.8839 38.3938C79.8839 39.3436 79.6948 40.1787 79.3164 40.8991C78.9422 41.6155 78.4049 42.1749 77.7046 42.5774C77.0083 42.9758 76.1732 43.175 75.1993 43.175ZM75.2174 40.9474C75.5715 40.9474 75.8714 40.8388 76.1169 40.6214C76.3624 40.4041 76.5495 40.1022 76.6783 39.7159C76.8111 39.3295 76.8775 38.8828 76.8775 38.3757C76.8775 37.8605 76.8111 37.4098 76.6783 37.0234C76.5495 36.6371 76.3624 36.3352 76.1169 36.1179C75.8714 35.9005 75.5715 35.7919 75.2174 35.7919C74.8511 35.7919 74.5412 35.9005 74.2877 36.1179C74.0382 36.3352 73.847 36.6371 73.7142 37.0234C73.5854 37.4098 73.521 37.8605 73.521 38.3757C73.521 38.8828 73.5854 39.3295 73.7142 39.7159C73.847 40.1022 74.0382 40.4041 74.2877 40.6214C74.5412 40.8388 74.8511 40.9474 75.2174 40.9474ZM84.3482 37.7116V43H81.3962V33.7273H84.2033V35.4297H84.306C84.5112 34.8622 84.8614 34.4175 85.3564 34.0955C85.8514 33.7695 86.441 33.6065 87.1252 33.6065C87.7772 33.6065 88.3427 33.7534 88.8216 34.0472C89.3045 34.337 89.6788 34.7435 89.9445 35.2667C90.2141 35.7858 90.3469 36.3936 90.3429 37.0898V43H87.3908V37.6694C87.3949 37.1542 87.2641 36.7518 86.9984 36.462C86.7368 36.1722 86.3726 36.0273 85.9058 36.0273C85.5959 36.0273 85.3222 36.0957 85.0847 36.2326C84.8513 36.3654 84.6702 36.5566 84.5414 36.8061C84.4166 37.0556 84.3522 37.3575 84.3482 37.7116ZM95.1226 37.7116V43H92.1706V33.7273H94.9777V35.4297H95.0804C95.2856 34.8622 95.6358 34.4175 96.1308 34.0955C96.6258 33.7695 97.2154 33.6065 97.8996 33.6065C98.5516 33.6065 99.1171 33.7534 99.596 34.0472C100.079 34.337 100.453 34.7435 100.719 35.2667C100.989 35.7858 101.121 36.3936 101.117 37.0898V43H98.1652V37.6694C98.1693 37.1542 98.0385 36.7518 97.7728 36.462C97.5112 36.1722 97.147 36.0273 96.6802 36.0273C96.3703 36.0273 96.0966 36.0957 95.8591 36.2326C95.6257 36.3654 95.4446 36.5566 95.3158 36.8061C95.1911 37.0556 95.1267 37.3575 95.1226 37.7116ZM107.28 43.175C106.31 43.175 105.472 42.9839 104.768 42.6015C104.068 42.2152 103.529 41.6658 103.15 40.9535C102.776 40.2371 102.589 39.3859 102.589 38.3998C102.589 37.442 102.778 36.6049 103.156 35.8885C103.535 35.1681 104.068 34.6086 104.756 34.2102C105.444 33.8077 106.255 33.6065 107.189 33.6065C107.849 33.6065 108.453 33.7091 109 33.9144C109.547 34.1197 110.02 34.4235 110.419 34.826C110.817 35.2284 111.127 35.7255 111.348 36.3171C111.57 36.9047 111.68 37.5788 111.68 38.3395V39.076H103.621V37.3615H108.934C108.93 37.0476 108.855 36.7679 108.71 36.5223C108.565 36.2768 108.366 36.0857 108.113 35.9488C107.863 35.808 107.575 35.7375 107.249 35.7375C106.919 35.7375 106.623 35.812 106.362 35.9609C106.1 36.1058 105.893 36.305 105.74 36.5586C105.587 36.8081 105.507 37.0918 105.499 37.4098V39.1545C105.499 39.5328 105.573 39.8648 105.722 40.1505C105.871 40.4323 106.082 40.6516 106.356 40.8086C106.63 40.9655 106.956 41.044 107.334 41.044C107.595 41.044 107.833 41.0078 108.046 40.9353C108.259 40.8629 108.443 40.7562 108.596 40.6154C108.748 40.4745 108.863 40.3015 108.94 40.0962L111.65 40.1747C111.538 40.7824 111.29 41.3116 110.908 41.7624C110.529 42.2091 110.032 42.5573 109.417 42.8068C108.801 43.0523 108.088 43.175 107.28 43.175ZM117.517 43.175C116.539 43.175 115.7 42.9738 114.999 42.5714C114.303 42.1689 113.768 41.6095 113.393 40.8931C113.019 40.1727 112.832 39.3396 112.832 38.3938C112.832 37.444 113.019 36.6109 113.393 35.8945C113.772 35.1741 114.309 34.6127 115.005 34.2102C115.706 33.8077 116.541 33.6065 117.511 33.6065C118.368 33.6065 119.114 33.7615 119.75 34.0714C120.39 34.3813 120.889 34.8199 121.247 35.3874C121.61 35.9509 121.801 36.6129 121.821 37.3736H119.062C119.006 36.8987 118.845 36.5264 118.579 36.2567C118.318 35.9871 117.975 35.8522 117.553 35.8522C117.211 35.8522 116.911 35.9488 116.653 36.142C116.396 36.3312 116.195 36.6129 116.05 36.9872C115.909 37.3575 115.838 37.8163 115.838 38.3636C115.838 38.911 115.909 39.3738 116.05 39.7521C116.195 40.1264 116.396 40.4101 116.653 40.6033C116.911 40.7925 117.211 40.887 117.553 40.887C117.827 40.887 118.068 40.8287 118.277 40.712C118.491 40.5953 118.666 40.4242 118.802 40.1988C118.939 39.9694 119.026 39.6917 119.062 39.3657H121.821C121.793 40.1304 121.602 40.7985 121.247 41.37C120.897 41.9415 120.404 42.3862 119.768 42.7042C119.137 43.0181 118.386 43.175 117.517 43.175ZM128.566 33.7273V35.9005H122.716V33.7273H128.566ZM123.941 31.5057H126.893V40.0841C126.893 40.2652 126.922 40.4121 126.978 40.5248C127.038 40.6335 127.125 40.712 127.238 40.7603C127.35 40.8045 127.485 40.8267 127.642 40.8267C127.755 40.8267 127.873 40.8166 127.998 40.7965C128.127 40.7723 128.224 40.7522 128.288 40.7361L128.735 42.8672C128.594 42.9074 128.395 42.9577 128.137 43.0181C127.884 43.0785 127.58 43.1167 127.226 43.1328C126.533 43.165 125.94 43.0845 125.445 42.8913C124.954 42.6941 124.577 42.3882 124.316 41.9737C124.058 41.5592 123.933 41.038 123.941 40.4101V31.5057ZM134.307 43.175C133.337 43.175 132.5 42.9839 131.795 42.6015C131.095 42.2152 130.556 41.6658 130.178 40.9535C129.803 40.2371 129.616 39.3859 129.616 38.3998C129.616 37.442 129.805 36.6049 130.184 35.8885C130.562 35.1681 131.095 34.6086 131.783 34.2102C132.472 33.8077 133.283 33.6065 134.216 33.6065C134.876 33.6065 135.48 33.7091 136.027 33.9144C136.575 34.1197 137.048 34.4235 137.446 34.826C137.844 35.2284 138.154 35.7255 138.376 36.3171C138.597 36.9047 138.708 37.5788 138.708 38.3395V39.076H130.648V37.3615H135.961C135.957 37.0476 135.882 36.7679 135.738 36.5223C135.593 36.2768 135.393 36.0857 135.14 35.9488C134.89 35.808 134.603 35.7375 134.277 35.7375C133.947 35.7375 133.651 35.812 133.389 35.9609C133.128 36.1058 132.92 36.305 132.767 36.5586C132.614 36.8081 132.534 37.0918 132.526 37.4098V39.1545C132.526 39.5328 132.6 39.8648 132.749 40.1505C132.898 40.4323 133.11 40.6516 133.383 40.8086C133.657 40.9655 133.983 41.044 134.361 41.044C134.623 41.044 134.86 41.0078 135.074 40.9353C135.287 40.8629 135.47 40.7562 135.623 40.6154C135.776 40.4745 135.891 40.3015 135.967 40.0962L138.678 40.1747C138.565 40.7824 138.317 41.3116 137.935 41.7624C137.557 42.2091 137.06 42.5573 136.444 42.8068C135.828 43.0523 135.116 43.175 134.307 43.175ZM143.602 43.1328C142.918 43.1328 142.296 42.9557 141.737 42.6015C141.177 42.2474 140.731 41.7161 140.397 41.0078C140.063 40.2995 139.896 39.4201 139.896 38.3696C139.896 37.279 140.069 36.3815 140.415 35.6772C140.761 34.9729 141.214 34.4517 141.773 34.1136C142.336 33.7755 142.942 33.6065 143.59 33.6065C144.077 33.6065 144.494 33.691 144.84 33.8601C145.186 34.0251 145.472 34.2384 145.697 34.5C145.922 34.7616 146.093 35.0332 146.21 35.315H146.271V30.6363H149.223V43H146.301V41.4968H146.21C146.085 41.7825 145.908 42.0502 145.679 42.2997C145.45 42.5492 145.162 42.7504 144.816 42.9034C144.474 43.0563 144.069 43.1328 143.602 43.1328ZM144.628 40.8327C144.987 40.8327 145.293 40.7321 145.546 40.5309C145.8 40.3256 145.995 40.0379 146.132 39.6676C146.269 39.2973 146.337 38.8627 146.337 38.3636C146.337 37.8565 146.269 37.4198 146.132 37.0536C145.999 36.6874 145.804 36.4056 145.546 36.2084C145.293 36.0112 144.987 35.9126 144.628 35.9126C144.262 35.9126 143.952 36.0132 143.699 36.2145C143.445 36.4157 143.252 36.6994 143.119 37.0657C142.99 37.4319 142.926 37.8646 142.926 38.3636C142.926 38.8627 142.992 39.2973 143.125 39.6676C143.258 40.0379 143.449 40.3256 143.699 40.5309C143.952 40.7321 144.262 40.8327 144.628 40.8327ZM154.337 33.0632V30.6363H164.787V33.0632H161.038V43H158.092V33.0632H154.337ZM169.237 43.175C168.267 43.175 167.429 42.9839 166.725 42.6015C166.025 42.2152 165.486 41.6658 165.107 40.9535C164.733 40.2371 164.546 39.3859 164.546 38.3998C164.546 37.442 164.735 36.6049 165.113 35.8885C165.492 35.1681 166.025 34.6086 166.713 34.2102C167.401 33.8077 168.212 33.6065 169.146 33.6065C169.806 33.6065 170.41 33.7091 170.957 33.9144C171.504 34.1197 171.977 34.4235 172.376 34.826C172.774 35.2284 173.084 35.7255 173.305 36.3171C173.527 36.9047 173.637 37.5788 173.637 38.3395V39.076H165.578V37.3615H170.891C170.887 37.0476 170.812 36.7679 170.667 36.5223C170.522 36.2768 170.323 36.0857 170.07 35.9488C169.82 35.808 169.532 35.7375 169.206 35.7375C168.876 35.7375 168.581 35.812 168.319 35.9609C168.057 36.1058 167.85 36.305 167.697 36.5586C167.544 36.8081 167.464 37.0918 167.456 37.4098V39.1545C167.456 39.5328 167.53 39.8648 167.679 40.1505C167.828 40.4323 168.039 40.6516 168.313 40.8086C168.587 40.9655 168.913 41.044 169.291 41.044C169.552 41.044 169.79 41.0078 170.003 40.9353C170.217 40.8629 170.4 40.7562 170.553 40.6154C170.706 40.4745 170.82 40.3015 170.897 40.0962L173.607 40.1747C173.495 40.7824 173.247 41.3116 172.865 41.7624C172.486 42.2091 171.989 42.5573 171.374 42.8068C170.758 43.0523 170.045 43.175 169.237 43.175ZM177.524 33.7273L179.051 36.7819L180.633 33.7273H183.609L181.019 38.3636L183.706 43H180.753L179.051 39.9211L177.391 43H174.397L177.089 38.3636L174.529 33.7273H177.524ZM190.191 33.7273V35.9005H184.341V33.7273H190.191ZM185.566 31.5057H188.518V40.0841C188.518 40.2652 188.547 40.4121 188.603 40.5248C188.663 40.6335 188.75 40.712 188.863 40.7603C188.975 40.8045 189.11 40.8267 189.267 40.8267C189.38 40.8267 189.498 40.8166 189.623 40.7965C189.752 40.7723 189.849 40.7522 189.913 40.7361L190.36 42.8672C190.219 42.9074 190.02 42.9577 189.762 43.0181C189.509 43.0785 189.205 43.1167 188.851 43.1328C188.158 43.165 187.565 43.0845 187.07 42.8913C186.579 42.6941 186.202 42.3882 185.941 41.9737C185.683 41.5592 185.558 41.038 185.566 40.4101V31.5057ZM197.68 38.9975V33.7273H200.626V43H197.812V41.2734H197.716C197.51 41.8409 197.16 42.2916 196.665 42.6257C196.174 42.9557 195.581 43.1207 194.884 43.1207C194.253 43.1207 193.697 42.9758 193.218 42.6861C192.739 42.3963 192.367 41.9918 192.101 41.4726C191.836 40.9494 191.701 40.3377 191.697 39.6374V33.7273H194.649V39.0579C194.653 39.5609 194.786 39.9574 195.047 40.2471C195.309 40.5369 195.665 40.6818 196.116 40.6818C196.41 40.6818 196.673 40.6174 196.907 40.4886C197.144 40.3558 197.331 40.1646 197.468 39.9151C197.609 39.6616 197.68 39.3557 197.68 38.9975ZM202.505 43V33.7273H205.372V35.4176H205.469C205.638 34.8058 205.913 34.3511 206.296 34.0532C206.678 33.7514 207.123 33.6005 207.63 33.6005C207.767 33.6005 207.908 33.6105 208.052 33.6307C208.197 33.6468 208.332 33.6729 208.457 33.7091V36.2748C208.316 36.2265 208.131 36.1883 207.902 36.1601C207.676 36.132 207.475 36.1179 207.298 36.1179C206.948 36.1179 206.632 36.1964 206.35 36.3533C206.072 36.5063 205.853 36.7216 205.692 36.9993C205.535 37.2729 205.457 37.5949 205.457 37.9652V43H202.505ZM213.513 43.175C212.543 43.175 211.706 42.9839 211.002 42.6015C210.301 42.2152 209.762 41.6658 209.384 40.9535C209.009 40.2371 208.822 39.3859 208.822 38.3998C208.822 37.442 209.011 36.6049 209.39 35.8885C209.768 35.1681 210.301 34.6086 210.989 34.2102C211.678 33.8077 212.489 33.6065 213.422 33.6065C214.082 33.6065 214.686 33.7091 215.233 33.9144C215.781 34.1197 216.254 34.4235 216.652 34.826C217.051 35.2284 217.36 35.7255 217.582 36.3171C217.803 36.9047 217.914 37.5788 217.914 38.3395V39.076H209.854V37.3615H215.167C215.163 37.0476 215.089 36.7679 214.944 36.5223C214.799 36.2768 214.6 36.0857 214.346 35.9488C214.096 35.808 213.809 35.7375 213.483 35.7375C213.153 35.7375 212.857 35.812 212.595 35.9609C212.334 36.1058 212.126 36.305 211.973 36.5586C211.821 36.8081 211.74 37.0918 211.732 37.4098V39.1545C211.732 39.5328 211.806 39.8648 211.955 40.1505C212.104 40.4323 212.316 40.6516 212.589 40.8086C212.863 40.9655 213.189 41.044 213.567 41.044C213.829 41.044 214.066 41.0078 214.28 40.9353C214.493 40.8629 214.676 40.7562 214.829 40.6154C214.982 40.4745 215.097 40.3015 215.173 40.0962L217.884 40.1747C217.771 40.7824 217.523 41.3116 217.141 41.7624C216.763 42.2091 216.266 42.5573 215.65 42.8068C215.034 43.0523 214.322 43.175 213.513 43.175ZM227.517 36.5586L224.806 36.631C224.778 36.4378 224.702 36.2668 224.577 36.1179C224.452 35.9649 224.289 35.8462 224.088 35.7617C223.891 35.6732 223.661 35.6289 223.4 35.6289C223.058 35.6289 222.766 35.6973 222.524 35.8341C222.287 35.971 222.17 36.1561 222.174 36.3895C222.17 36.5706 222.243 36.7276 222.392 36.8604C222.545 36.9932 222.816 37.0999 223.207 37.1804L224.994 37.5184C225.919 37.6955 226.607 37.9893 227.058 38.3998C227.513 38.8103 227.742 39.3537 227.746 40.0298C227.742 40.6657 227.553 41.2191 227.179 41.69C226.809 42.1608 226.302 42.5271 225.658 42.7887C225.014 43.0463 224.277 43.175 223.448 43.175C222.124 43.175 221.08 42.9034 220.315 42.3601C219.554 41.8127 219.12 41.0802 219.011 40.1626L221.927 40.0902C221.991 40.4282 222.158 40.6858 222.428 40.8629C222.698 41.04 223.042 41.1285 223.46 41.1285C223.839 41.1285 224.146 41.0581 224.384 40.9172C224.621 40.7764 224.742 40.5892 224.746 40.3558C224.742 40.1465 224.649 39.9795 224.468 39.8547C224.287 39.7259 224.004 39.6253 223.617 39.5529L221.999 39.245C221.07 39.076 220.377 38.7641 219.923 38.3093C219.468 37.8505 219.242 37.2669 219.246 36.5586C219.242 35.9388 219.407 35.4095 219.741 34.9709C220.076 34.5281 220.55 34.1901 221.166 33.9567C221.782 33.7232 222.508 33.6065 223.346 33.6065C224.601 33.6065 225.591 33.8701 226.316 34.3973C227.04 34.9205 227.441 35.641 227.517 36.5586Z" fill="#E8E8E8"/>
</g>
<defs>
<filter id="filter0_d_65_10" x="3.28816" y="2.2857" width="52.1937" height="51.4286" filterUnits="userSpaceOnUse" color-interpolation-filters="sRGB">
<feFlood flood-opacity="0" result="BackgroundImageFix"/>
<feColorMatrix in="SourceAlpha" type="matrix" values="0 0 0 0 0 0 0 0 0 0 0 0 0 0 0 0 0 0 127 0" result="hardAlpha"/>
<feOffset/>
<feGaussianBlur stdDeviation="2.85714"/>
<feComposite in2="hardAlpha" operator="out"/>
<feColorMatrix type="matrix" values="0 0 0 0 0 0 0 0 0 0 0 0 0 0 0 0 0 0 0.25 0"/>
<feBlend mode="normal" in2="BackgroundImageFix" result="effect1_dropShadow_65_10"/>
<feBlend mode="normal" in="SourceGraphic" in2="effect1_dropShadow_65_10" result="shape"/>
</filter>
<filter id="filter1_d_65_10" x="51.4024" y="4.39998" width="183.2" height="47.2" filterUnits="userSpaceOnUse" color-interpolation-filters="sRGB">
<feFlood flood-opacity="0" result="BackgroundImageFix"/>
<feColorMatrix in="SourceAlpha" type="matrix" values="0 0 0 0 0 0 0 0 0 0 0 0 0 0 0 0 0 0 127 0" result="hardAlpha"/>
<feOffset/>
<feGaussianBlur stdDeviation="2.8"/>
<feComposite in2="hardAlpha" operator="out"/>
<feColorMatrix type="matrix" values="0 0 0 0 0 0 0 0 0 0 0 0 0 0 0 0 0 0 0.25 0"/>
<feBlend mode="normal" in2="BackgroundImageFix" result="effect1_dropShadow_65_10"/>
<feBlend mode="normal" in="SourceGraphic" in2="effect1_dropShadow_65_10" result="shape"/>
</filter>
<linearGradient id="paint0_linear_65_10" x1="120.502" y1="-1.52588e-05" x2="120.502" y2="56" gradientUnits="userSpaceOnUse">
<stop stop-color="#201F29"/>
<stop offset="1" stop-color="#161014"/>
</linearGradient>
</defs>
</svg>
