<svg width="56" height="57" viewBox="0 0 56 57" fill="none" xmlns="http://www.w3.org/2000/svg">
<rect y="0.9375" width="56" height="56" rx="8.4" fill="url(#paint0_linear_19_6995)"/>
<rect x="1.05" y="1.9875" width="53.9" height="53.9" rx="7.35" stroke="white" stroke-opacity="0.15" stroke-width="2.1"/>
<g filter="url(#filter0_d_19_6995)">
<path d="M10 9L13.2146 45.0155L27.6397 49L42.1047 45.02L45.3225 9H10ZM38.6362 17.527L38.4348 19.8314L38.3461 20.8881H21.4248L21.8287 25.3863H37.9438L37.8359 26.5016L36.7971 38.1066L36.7206 38.836L27.6613 41.3257V41.3264L27.6503 41.3322L18.597 38.9471L17.9824 32.1336H22.4212L22.7357 35.6419L27.6474 36.9532H27.6613V36.7777L32.5948 35.5327L33.1102 29.8845H17.7848L16.6978 17.6375L16.5921 16.3899H38.7423L38.6362 17.527Z" fill="#E44D26"/>
</g>
<defs>
<filter id="filter0_d_19_6995" x="2.39972" y="3.33722" width="51.2006" height="51.2631" filterUnits="userSpaceOnUse" color-interpolation-filters="sRGB">
<feFlood flood-opacity="0" result="BackgroundImageFix"/>
<feColorMatrix in="SourceAlpha" type="matrix" values="0 0 0 0 0 0 0 0 0 0 0 0 0 0 0 0 0 0 127 0" result="hardAlpha"/>
<feOffset/>
<feGaussianBlur stdDeviation="2.80014"/>
<feComposite in2="hardAlpha" operator="out"/>
<feColorMatrix type="matrix" values="0 0 0 0 0 0 0 0 0 0 0 0 0 0 0 0 0 0 0.25 0"/>
<feBlend mode="normal" in2="BackgroundImageFix" result="effect1_dropShadow_19_6995"/>
<feBlend mode="normal" in="SourceGraphic" in2="effect1_dropShadow_19_6995" result="shape"/>
</filter>
<linearGradient id="paint0_linear_19_6995" x1="28" y1="1" x2="28.0624" y2="56.9999" gradientUnits="userSpaceOnUse">
<stop stop-color="#362312"/>
<stop offset="1" stop-color="#1D0909"/>
</linearGradient>
</defs>
</svg>
