<svg width="56" height="57" viewBox="0 0 56 57" fill="none" xmlns="http://www.w3.org/2000/svg">
<g clip-path="url(#clip0_20_7014)">
<rect y="0.9375" width="56" height="56" rx="8.4" fill="url(#paint0_linear_20_7014)"/>
<g filter="url(#filter0_d_20_7014)">
<path d="M13.6523 47.5427C22.1761 48.9414 29.9537 48.6375 35.0538 47.7305C37.5974 47.2781 39.4975 46.672 40.4885 46.0381C40.7379 45.8786 40.9382 45.7121 41.0769 45.5387C41.216 45.3648 41.301 45.1738 41.297 44.9714C41.2893 44.5728 40.9492 44.2557 40.4177 44.0056L40.3726 43.9682H40.3082H40.2976L40.2415 44.2273C40.1943 44.2843 40.1942 44.2842 40.1942 44.2842L40.1945 44.2845L40.2007 44.29C40.2066 44.2954 40.2157 44.3041 40.227 44.3157C40.2498 44.3393 40.2804 44.3739 40.3103 44.4171C40.3715 44.5058 40.4206 44.6168 40.4144 44.7371C40.4086 44.8507 40.3518 45.0064 40.1341 45.1869C39.9128 45.3704 39.5333 45.5719 38.9045 45.7652C36.5461 46.4739 31.5689 46.9395 26.6334 46.9931C24.1692 47.0198 21.7226 46.9437 19.6278 46.7452C17.527 46.5462 15.799 46.2257 14.7594 45.7724L14.7586 45.7721C14.5835 45.6968 14.499 45.6278 14.4633 45.5787C14.4365 45.5418 14.4356 45.5166 14.4492 45.4823C14.468 45.4345 14.519 45.3679 14.6192 45.2872C14.7165 45.2089 14.8461 45.1285 14.9998 45.0489C15.6193 44.7279 16.5402 44.4646 16.9801 44.3955L16.9802 44.396L16.9926 44.3931C17.4486 44.2876 17.7981 44.2351 18.0319 44.2091C18.1488 44.1961 18.2368 44.1897 18.2948 44.1865C18.3238 44.1849 18.3453 44.1842 18.3591 44.1838L18.3741 44.1835L18.3773 44.1834L18.3776 44.1834H18.3776H18.3777H18.3778H18.3778H18.9448L18.4799 43.8585C18.2314 43.6848 17.8643 43.6131 17.4567 43.601C17.0425 43.5888 16.5577 43.6376 16.0496 43.7307C15.0336 43.9168 13.9014 44.2839 13.014 44.7209C12.5707 44.9391 12.1811 45.1785 11.8965 45.4267C11.6188 45.6689 11.4085 45.9481 11.3938 46.2494C11.378 46.5724 11.5862 46.8386 11.9502 47.0435C12.3139 47.2482 12.871 47.4165 13.6523 47.5427ZM13.6523 47.5427C13.6523 47.5427 13.6522 47.5427 13.6522 47.5427L13.6811 47.3665L13.6526 47.5428C13.6525 47.5428 13.6524 47.5428 13.6523 47.5427ZM23.1086 50.397C20.6739 50.2496 19.1955 49.9691 18.3184 49.7198C17.8696 49.5923 17.5768 49.4725 17.3932 49.3821C17.3013 49.3369 17.2365 49.2989 17.1931 49.2708C17.1714 49.2568 17.155 49.2452 17.1432 49.2364C17.1373 49.232 17.1326 49.2284 17.1289 49.2254L17.1242 49.2216L17.1224 49.2201L17.1216 49.2194L17.1213 49.2191C17.1211 49.219 17.1209 49.2188 17.2374 49.0835L17.1209 49.2188L16.6387 48.804L17.2664 48.9073C22.0156 49.6889 30.1077 49.8334 36.6341 48.6213M23.1086 50.397L36.6667 48.7969M23.1086 50.397V50.3972L23.2755 50.4081C27.1273 50.6592 31.9979 50.5877 35.9458 49.9947C37.9183 49.6984 39.6722 49.2703 40.9556 48.6806C42.2276 48.0961 43.0992 47.3229 43.1782 46.3062L42.8365 46.227M23.1086 50.397L42.9227 46.6849C42.9324 46.6751 42.9417 46.6654 42.9507 46.656C43.0295 46.573 43.0811 46.5043 43.1142 46.4533C43.1307 46.4279 43.1426 46.4069 43.1509 46.3909C43.155 46.3829 43.1583 46.3761 43.1608 46.3706L43.164 46.3634L43.1652 46.3606L43.1657 46.3594L43.1659 46.3588C43.166 46.3585 43.1661 46.3582 43.0001 46.2924M36.6341 48.6213L36.6667 48.7969M36.6341 48.6213C36.6341 48.6213 36.634 48.6213 36.634 48.6213L36.6667 48.7969M36.6341 48.6213C39.5052 48.0877 41.0674 47.4665 41.9067 46.9877C42.3257 46.7487 42.5623 46.5464 42.6917 46.4101C42.7563 46.342 42.7941 46.2904 42.8147 46.2588C42.8249 46.243 42.8309 46.2321 42.8338 46.2266L42.8359 46.2224C42.8359 46.2224 42.8357 46.2227 42.8354 46.2234L42.8349 46.2247L42.8345 46.2255L42.8344 46.226C42.8343 46.2261 42.8343 46.2261 42.8365 46.227M36.6667 48.7969C40.8173 48.0254 42.2743 47.0665 42.7648 46.59C42.7947 46.4882 42.8139 46.3843 42.8221 46.2785L43.0001 46.2924M42.8365 46.227L42.8341 46.2265L43.0001 46.2924M42.8365 46.227C42.8435 46.23 42.8733 46.2421 43.0001 46.2924M21.8246 40.7942L21.8247 40.7942L21.8248 40.7941L21.8248 40.7941L22.3658 40.4633H21.7314H21.7301H21.7052L21.6813 40.4701C20.8541 40.7053 20.2733 40.9768 19.9219 41.2765C19.7447 41.4275 19.6184 41.5922 19.5537 41.7705C19.4878 41.952 19.4901 42.1363 19.5524 42.314C19.673 42.6576 20.0111 42.9597 20.4657 43.2159C20.9276 43.4763 21.5413 43.7071 22.2647 43.8929C25.1541 44.635 29.9102 44.6886 34.1132 42.8818L34.5231 42.7056L34.1049 42.5504C33.2978 42.2508 32.5218 41.8724 31.7881 41.4206L31.7289 41.3842L31.6606 41.3974C27.9769 42.1093 26.2153 42.1791 22.893 41.7532L22.893 41.7531L22.8886 41.7527C22.2004 41.6816 21.8125 41.5681 21.6087 41.4527C21.5089 41.3961 21.4651 41.3457 21.4463 41.3112C21.4295 41.2803 21.4264 41.251 21.4339 41.2166C21.4523 41.1324 21.532 41.0306 21.6378 40.9361C21.6867 40.8924 21.7343 40.8563 21.7698 40.8311C21.7875 40.8186 21.8018 40.8089 21.8115 40.8026L21.8222 40.7957L21.8245 40.7943L21.8246 40.7942ZM20.8444 35.9905V35.6294L20.5776 35.8332C19.6887 36.1365 19.0635 36.4501 18.6818 36.769C18.295 37.0921 18.1191 37.4597 18.2567 37.8376C18.3827 38.1838 18.7529 38.466 19.245 38.6949C19.7474 38.9286 20.4202 39.1267 21.2199 39.2802C24.4163 39.8941 29.7652 39.8204 34.8092 38.3098L35.3459 38.1491L34.8152 37.9696C34.1969 37.7604 33.636 37.4081 33.1779 36.9409L33.1099 36.8716L33.0148 36.891C28.1238 37.8871 25.2959 37.8164 21.6802 37.4602C20.995 37.389 20.6262 37.2541 20.4427 37.1162C20.3546 37.05 20.3143 36.987 20.2965 36.9335C20.2784 36.8794 20.2781 36.8194 20.2959 36.7512C20.3333 36.6075 20.4438 36.4553 20.5616 36.3294C20.6183 36.2688 20.6724 36.2188 20.7122 36.184C20.7272 36.171 20.74 36.1601 20.7501 36.1518L20.8444 36.1199V35.9918V35.9905ZM22.6612 31.044L22.5979 30.9166L22.4763 30.9458L22.4761 30.9458C22.4515 30.9446 22.4154 30.9431 22.3686 30.9419C22.2749 30.9394 22.138 30.938 21.9626 30.9419C21.6117 30.9498 21.1066 30.9792 20.4852 31.0651C19.2427 31.2369 17.5338 31.6348 15.6639 32.5391L15.6639 32.5391L15.6625 32.5398C15.3832 32.6778 15.1688 32.8173 15.0239 32.9608C14.8793 33.1038 14.7852 33.2703 14.797 33.4557C14.8087 33.6399 14.9216 33.7894 15.0679 33.9067C15.2153 34.0249 15.4181 34.1285 15.6598 34.2208C16.6221 34.5883 18.3815 34.8417 20.4995 34.9626C24.7448 35.2047 30.5299 34.9187 34.5037 33.8743L34.5308 33.8672L34.5545 33.8521C34.9376 33.607 35.411 33.3601 35.7917 33.1732C35.9814 33.08 36.1469 33.0024 36.2648 32.9481C36.3238 32.921 36.3708 32.8997 36.403 32.8852L36.4398 32.8688L36.4492 32.8646L36.4515 32.8636L36.4521 32.8633L36.4522 32.8633L36.4522 32.8633L36.4522 32.8632L36.349 32.524L36.3803 32.6998L36.349 32.524L36.3489 32.524L36.3485 32.5241L36.3468 32.5244L36.3399 32.5256L36.3127 32.5304L36.2061 32.5489C36.1125 32.565 35.9752 32.5884 35.8004 32.6173C35.4507 32.6751 34.9511 32.7552 34.3515 32.8443C33.1523 33.0224 31.5549 33.2361 29.9591 33.379C26.0457 33.6641 21.8643 33.7349 19.7493 33.451L19.7484 33.4509C19.13 33.3711 18.726 33.2741 18.4844 33.1714C18.3633 33.12 18.2962 33.0725 18.2624 33.0363C18.2331 33.0049 18.2347 32.9895 18.2353 32.9835L18.2353 32.9833C18.2368 32.9691 18.2473 32.9351 18.2955 32.8807C18.3427 32.8275 18.4148 32.7673 18.5135 32.7017C18.7106 32.5707 18.9885 32.4344 19.3137 32.2996C19.9623 32.0308 20.7684 31.7802 21.4159 31.5962C21.7389 31.5044 22.021 31.4295 22.2223 31.3776C22.3229 31.3517 22.4033 31.3315 22.4584 31.3179L22.5083 31.3056L22.8015 31.3262L22.6625 31.0467L22.6612 31.044ZM37.1622 31.5534L37.0023 31.4739L36.7645 31.9521L37.2417 31.7133L37.2417 31.7133L37.2418 31.7132L37.2419 31.7132L37.242 31.7131L37.2421 31.7131L37.243 31.7126L37.2507 31.709C37.2581 31.7056 37.2701 31.7002 37.2868 31.6931C37.3203 31.6788 37.3726 31.6578 37.445 31.6321C37.5892 31.581 37.8129 31.5115 38.1245 31.4416C39.3201 31.21 40.7781 32.0358 41.008 33.381C41.2349 34.7088 40.2784 36.6821 36.3365 38.745H36.2675L36.218 38.8434C36.1873 38.9047 36.1574 38.9494 36.1363 38.9776C36.1258 38.9916 36.1176 39.0015 36.1126 39.0073L36.1077 39.0127L36.1077 39.0127C36.1073 39.0131 36.1072 39.0132 36.1073 39.0131L35.6468 39.4761L36.2803 39.3106C38.9677 38.6084 40.7529 37.6266 41.8315 36.562C42.9126 35.4949 43.2867 34.34 43.1297 33.3155C42.8156 31.2663 40.4231 29.8921 37.8187 30.8114C37.5327 30.895 37.3299 31.0592 37.1998 31.2C37.1342 31.271 37.086 31.3372 37.0538 31.3864C37.0377 31.411 37.0254 31.4316 37.0169 31.4466C37.0127 31.4542 37.0093 31.4603 37.0069 31.4649L37.0039 31.4706L37.0029 31.4726L37.0026 31.4733L37.0024 31.4736L37.0023 31.4737C37.0023 31.4738 37.0023 31.4739 37.1622 31.5534ZM17.799 49.1707C17.6967 49.1301 17.615 49.0933 17.5509 49.0617C17.4704 49.0221 17.4179 48.9908 17.3871 48.9709C17.3717 48.961 17.3617 48.9538 17.3564 48.9499L17.3521 48.9466L17.799 49.1707Z" fill="#4E7896" stroke="#4E7896" stroke-width="0.357143"/>
<path d="M31.5536 7.50894L31.6812 7.38403L31.22 6.91291L31.3804 7.55237C31.8161 9.29036 31.6492 10.714 31.1163 11.9436C30.5813 13.1778 29.6724 14.2285 28.6041 15.2088C27.89 15.8639 27.115 16.4791 26.3382 17.0956C25.9486 17.4049 25.5585 17.7145 25.1755 18.0297C24.0367 18.9667 22.9695 19.9463 22.2247 21.0794C21.7057 21.862 21.5032 22.6655 21.5628 23.4878C21.6221 24.3063 21.9403 25.1319 22.4429 25.9653C23.4457 27.6279 25.2084 29.3615 27.2358 31.1852L27.5188 30.9809C27.1564 30.1523 26.597 29.348 26.0427 28.5511C25.9854 28.4686 25.928 28.3862 25.871 28.3038C25.2573 27.4179 24.6728 26.5351 24.3482 25.5996C24.0262 24.6715 23.9611 23.6942 24.3888 22.6144C24.8188 21.5283 25.7538 20.322 27.4662 18.9552C31.7971 15.536 32.8899 12.662 32.8621 10.6103C32.8483 9.58839 32.556 8.78484 32.2664 8.2362C32.1217 7.96195 31.9774 7.75106 31.8685 7.60783C31.814 7.53619 31.7683 7.48137 31.7357 7.44392C31.7193 7.42518 31.7063 7.41079 31.697 7.40079L31.6861 7.38909L31.6828 7.38573L31.6818 7.38467L31.6814 7.3843C31.6813 7.38415 31.6812 7.38403 31.5536 7.50894ZM29.154 28.1637L29.1548 28.1646C29.6484 28.7291 29.8533 29.2707 29.8934 29.7621C29.9336 30.2558 29.8085 30.7136 29.6182 31.1092C29.4276 31.5051 29.1743 31.8332 28.967 32.0633C28.8637 32.178 28.7726 32.2673 28.7079 32.3277C28.6755 32.3578 28.6498 32.3806 28.6325 32.3956L28.6131 32.4122L28.6085 32.416L28.6077 32.4168L28.6076 32.4168L28.6076 32.4169C28.6076 32.4169 28.6076 32.4168 28.6082 32.4175L28.8024 32.7139L28.7205 32.5552C28.8024 32.7139 28.8025 32.7138 28.8026 32.7138L28.8029 32.7136L28.8038 32.7131L28.8071 32.7114L28.8192 32.705C28.8297 32.6995 28.845 32.6913 28.8646 32.6806C28.9039 32.6591 28.9607 32.6275 29.0318 32.5862C29.1739 32.5036 29.3736 32.3822 29.6054 32.2259C30.068 31.9139 30.6628 31.4601 31.1826 30.8963C31.7011 30.3336 32.1553 29.6503 32.3179 28.8787C32.482 28.0997 32.3449 27.2487 31.7131 26.3695C31.6114 26.2212 31.5115 26.0771 31.414 25.9367C30.9768 25.3067 30.5902 24.7497 30.3303 24.204C30.0167 23.5457 29.8996 22.9268 30.109 22.2493C30.3212 21.5625 30.8769 20.7887 31.9728 19.8451C33.067 18.903 34.6841 17.8048 36.9936 16.4653L36.8607 16.1376L36.904 16.3108C36.8607 16.1376 36.8606 16.1376 36.8604 16.1377L36.8598 16.1378L36.8576 16.1384L36.8493 16.1405L36.8173 16.1488C36.7893 16.1561 36.7481 16.167 36.6949 16.1815C36.5884 16.2106 36.4337 16.2541 36.2395 16.3124C35.8512 16.4289 35.3048 16.6042 34.6712 16.8401C33.4057 17.3111 31.7846 18.0261 30.3796 18.9997C28.9782 19.9708 27.767 21.2163 27.3641 22.7565C26.9578 24.3098 27.3853 26.1128 29.154 28.1637Z" fill="#F58219" stroke="#F58219" stroke-width="0.357143"/>
</g>
</g>
<rect x="1.05" y="1.9875" width="53.9" height="53.9" rx="7.35" stroke="white" stroke-opacity="0.15" stroke-width="2.1"/>
<defs>
<filter id="filter0_d_20_7014" x="2.28571" y="0.602594" width="51.4286" height="55.8349" filterUnits="userSpaceOnUse" color-interpolation-filters="sRGB">
<feFlood flood-opacity="0" result="BackgroundImageFix"/>
<feColorMatrix in="SourceAlpha" type="matrix" values="0 0 0 0 0 0 0 0 0 0 0 0 0 0 0 0 0 0 127 0" result="hardAlpha"/>
<feOffset/>
<feGaussianBlur stdDeviation="2.85714"/>
<feComposite in2="hardAlpha" operator="out"/>
<feColorMatrix type="matrix" values="0 0 0 0 0 0 0 0 0 0 0 0 0 0 0 0 0 0 0.25 0"/>
<feBlend mode="normal" in2="BackgroundImageFix" result="effect1_dropShadow_20_7014"/>
<feBlend mode="normal" in="SourceGraphic" in2="effect1_dropShadow_20_7014" result="shape"/>
</filter>
<linearGradient id="paint0_linear_20_7014" x1="28" y1="0.9375" x2="28" y2="56.9375" gradientUnits="userSpaceOnUse">
<stop stop-color="#2F1A07"/>
<stop offset="1" stop-color="#111A21"/>
</linearGradient>
<clipPath id="clip0_20_7014">
<rect y="0.9375" width="56" height="56" rx="8.4" fill="white"/>
</clipPath>
</defs>
</svg>
