<svg width="52" height="53" viewBox="0 0 52 53" fill="none" xmlns="http://www.w3.org/2000/svg">
<rect y="0.937485" width="52" height="52" rx="8.4" fill="url(#paint0_linear_20_7032)"/>
<rect x="1.05" y="1.98748" width="49.9" height="49.9" rx="7.35" stroke="white" stroke-opacity="0.15" stroke-width="2.1"/>
<g filter="url(#filter0_d_20_7032)">
<path d="M8.00006 8.93755H44.0001V44.9376H8.00006V8.93755ZM41.0511 36.3516C40.7886 34.7091 39.7191 33.3291 36.5466 32.0421C35.4426 31.5246 34.2156 31.1646 33.8511 30.3321C33.7146 29.8371 33.6936 29.5671 33.7821 29.2746C34.0071 28.3055 35.1546 28.0145 36.0546 28.2846C36.6396 28.4646 37.1796 28.9146 37.5186 29.6346C39.0696 28.6206 39.0696 28.6206 40.1511 27.9471C39.7461 27.3171 39.5451 27.0455 39.2721 26.777C38.3271 25.7195 37.0686 25.1795 35.0211 25.226L33.9636 25.3595C32.9496 25.607 31.9836 26.147 31.3986 26.8671C29.6886 28.8036 30.1821 32.1786 32.2521 33.5736C34.2996 35.1036 37.2936 35.4396 37.6761 36.8811C38.0361 38.6361 36.3711 39.1986 34.7271 38.9961C33.5106 38.7261 32.8371 38.1171 32.0946 36.9921L29.3496 38.5686C29.6646 39.2886 30.0246 39.6021 30.5646 40.2321C33.1746 42.8661 39.6996 42.7311 40.8711 38.7261C40.9146 38.5911 41.2311 37.6686 40.9821 36.2511L41.0511 36.3516V36.3516ZM27.5766 25.484H24.2046C24.2046 28.3911 24.1911 31.2801 24.1911 34.1916C24.1911 36.0396 24.2856 37.7361 23.9841 38.2581C23.4891 39.2916 22.2141 39.1596 21.6351 38.9781C21.0411 38.6841 20.7396 38.2791 20.3901 37.6956C20.2956 37.5381 20.2251 37.4016 20.1996 37.4016L17.4621 39.0891C17.9196 40.0341 18.5871 40.8471 19.4481 41.3646C20.7306 42.1296 22.4541 42.3771 24.2586 41.9721C25.4331 41.6331 26.4456 40.9356 26.9751 39.8556C27.7401 38.4606 27.5781 36.7506 27.5706 34.8366C27.5886 31.7556 27.5706 28.6731 27.5706 25.568L27.5766 25.484V25.484Z" fill="#F7DF1E"/>
</g>
<defs>
<filter id="filter0_d_20_7032" x="2.28571" y="3.2232" width="47.4286" height="47.4286" filterUnits="userSpaceOnUse" color-interpolation-filters="sRGB">
<feFlood flood-opacity="0" result="BackgroundImageFix"/>
<feColorMatrix in="SourceAlpha" type="matrix" values="0 0 0 0 0 0 0 0 0 0 0 0 0 0 0 0 0 0 127 0" result="hardAlpha"/>
<feOffset/>
<feGaussianBlur stdDeviation="2.85714"/>
<feComposite in2="hardAlpha" operator="out"/>
<feColorMatrix type="matrix" values="0 0 0 0 0 0 0 0 0 0 0 0 0 0 0 0 0 0 0.25 0"/>
<feBlend mode="normal" in2="BackgroundImageFix" result="effect1_dropShadow_20_7032"/>
<feBlend mode="normal" in="SourceGraphic" in2="effect1_dropShadow_20_7032" result="shape"/>
</filter>
<linearGradient id="paint0_linear_20_7032" x1="26" y1="0.937485" x2="26" y2="52.9375" gradientUnits="userSpaceOnUse">
<stop stop-color="#35300A"/>
<stop offset="1" stop-color="#232004"/>
</linearGradient>
</defs>
</svg>
